#!OML:ASF F:\VICON\USERDATA\INSTALL\rory3\rory3.ASF
:FULLY-SPECIFIED
:DEGREES
106
root -0.00150576 18.0035 -0.944128 2.3019 -8.30388 1.02303
lowerback -2.06811 -0.346455 -3.26025
upperback -0.66485 -0.404157 1.25232
thorax 0.508764 -0.201922 3.1056
lowerneck -19.0921 -0.872705 -8.79156
upperneck 35.3188 1.19937 1.93085
head 15.6449 -0.450906 2.57913
rclavicle 2.49879e-015 7.95139e-015
rhumerus -11.3211 41.0431 -85.4878
rradius 98.1882
rwrist 50.9258
rhand -17.2115 -9.72266
rfingers 7.12502
rthumb 9.03125 -39.5093
lclavicle 2.49879e-015 7.95139e-015
lhumerus -26.7594 -25.1743 102.079
lradius 72.4651
lwrist 5.79735
lhand -36.1367 32.1172
lfingers 7.12502
lthumb -9.24167 61.8947
rfemur -7.54763 7.42027 15.1591
rtibia 24.0965
rfoot -16.1378 -3.62493
rtoes 6.73778
lfemur -0.121588 -2.06532 -21.3245
ltibia 12.2732
lfoot -10.3077 4.13867
ltoes -11.5378
107
root -0.00350111 17.9999 -0.94566 2.21644 -8.25887 1.11185
lowerback -2.02107 -0.330059 -3.39374
upperback -0.626244 -0.380458 1.21157
thorax 0.520716 -0.190889 3.13954
lowerneck -19.0616 -0.84043 -8.73456
upperneck 35.201 1.23196 1.90468
head 15.5777 -0.427887 2.56088
rclavicle 2.41492e-015 -2.78299e-015
rhumerus -11.2049 41.005 -85.1985
rradius 98.7391
rwrist 51.3532
rhand -16.4441 -10.0122
rfingers 7.12502
rthumb 9.77167 -39.7654
lclavicle 2.41492e-015 -2.78299e-015
lhumerus -26.8118 -25.7459 102.225
lradius 72.9344
lwrist 4.572
lhand -36.2198 32.6981
lfingers 7.12502
lthumb -9.32185 62.472
rfemur -7.47012 7.40176 15.1085
rtibia 24.081
rfoot -16.0977 -3.78341
rtoes 5.04504
lfemur -0.124345 -2.04436 -21.4147
ltibia 12.4152
lfoot -10.3465 4.07694
ltoes -11.638
108
root -0.00489632 18.0001 -0.943072 2.16358 -8.20321 1.07331
lowerback -2.01262 -0.329215 -3.40008
upperback -0.591812 -0.379261 1.22775
thorax 0.551383 -0.191416 3.15978
lowerneck -19.1333 -0.816938 -8.74625
upperneck 35.1639 1.26787 1.93815
head 15.573 -0.407848 2.5838
rclavicle -3.30293e-014 2.34566e-014
rhumerus -11.0624 41.0399 -84.8928
rradius 99.2119
rwrist 51.6119
rhand -15.5878 -10.2404
rfingers 7.12502
rthumb 10.5978 -39.9532
lclavicle -3.30293e-014 2.34566e-014
lhumerus -26.6106 -26.1662 102.181
lradius 73.4743
lwrist 4.88997
lhand -36.4564 33.6678
lfingers 7.12502
lthumb -9.55015 63.4314
rfemur -7.40121 7.42056 15.1756
rtibia 24.0999
rfoot -16.1523 -3.88393
rtoes 4.92562
lfemur -0.0823089 -2.05407 -21.3676
ltibia 12.4809
lfoot -10.3874 4.02507
ltoes -11.669
109
root -0.00556103 17.9982 -0.937442 2.13897 -8.16744 1.06079
lowerback -2.07207 -0.327164 -3.41176
upperback -0.560895 -0.374116 1.23523
thorax 0.616156 -0.19059 3.17388
lowerneck -19.2035 -0.820644 -8.77738
upperneck 35.1691 1.27824 1.9515
head 15.5912 -0.406024 2.59777
rclavicle 1.50797e-015 1.19271e-014
rhumerus -10.8955 41.0924 -84.5846
rradius 99.6032
rwrist 51.7724
rhand -14.9629 -10.7208
rfingers 7.12502
rthumb 11.2005 -40.4018
lclavicle 1.50797e-015 1.19271e-014
lhumerus -26.4238 -26.849 102.181
lradius 73.9104
lwrist 4.74891
lhand -36.4738 34.4261
lfingers 7.12502
lthumb -9.56699 64.1889
rfemur -7.34852 7.40212 15.1923
rtibia 24.1421
rfoot -16.214 -3.86492
rtoes 5.18007
lfemur -0.0294062 -2.09066 -21.3535
ltibia 12.4758
lfoot -10.4218 3.99784
ltoes -11.4561
110
root -0.00648257 17.9958 -0.934661 2.13934 -8.15377 1.1368
lowerback -2.1419 -0.332898 -3.52212
upperback -0.555439 -0.37694 1.22381
thorax 0.661707 -0.193101 3.22395
lowerneck -19.2948 -0.784017 -8.75426
upperneck 35.1933 1.34726 1.92468
head 15.6199 -0.37894 2.59655
rclavicle 1.70287e-014 -6.75868e-015
rhumerus -10.789 41.1372 -84.3497
rradius 99.9907
rwrist 51.8923
rhand -14.6543 -11.2442
rfingers 7.12502
rthumb 11.4982 -40.9089
lclavicle 1.70287e-014 -6.75868e-015
lhumerus -26.2761 -27.4343 102.17
lradius 74.2472
lwrist 4.62193
lhand -36.7634 35.0693
lfingers 7.12502
lthumb -9.84633 64.8191
rfemur -7.33595 7.36966 15.1085
rtibia 24.1255
rfoot -16.1838 -3.88337
rtoes 4.96297
lfemur -0.0565393 -2.09237 -21.4372
ltibia 12.5231
lfoot -10.4374 3.98369
ltoes -11.6341
111
root -0.00935536 17.9957 -0.932211 2.15075 -8.13268 1.14532
lowerback -2.18002 -0.34942 -3.61013
upperback -0.609687 -0.396574 1.25838
thorax 0.629742 -0.201512 3.3087
lowerneck -19.3066 -0.69533 -8.66341
upperneck 35.2791 1.48801 1.82742
head 15.6563 -0.32516 2.5671
rclavicle 3.63947e-014 -5.1684e-015
rhumerus -10.8539 41.2023 -84.2173
rradius 100.355
rwrist 51.8905
rhand -14.5884 -11.5414
rfingers 7.12502
rthumb 11.5617 -41.2025
lclavicle 3.63947e-014 -5.1684e-015
lhumerus -26.5038 -27.8164 102.347
lradius 74.4147
lwrist 3.35898
lhand -37.0638 34.4767
lfingers 7.12502
lthumb -10.1362 64.2125
rfemur -7.33803 7.38025 15.1161
rtibia 24.1118
rfoot -16.1703 -3.94724
rtoes 4.58263
lfemur -0.0853424 -1.96919 -21.4248
ltibia 12.5618
lfoot -10.4541 3.87565
ltoes -11.5135
112
root -0.00724772 18.0026 -0.932861 2.41163 -7.81876 0.983185
lowerback -2.35181 -0.458834 -3.46322
upperback -0.755059 -0.541976 1.32878
thorax 0.588299 -0.27105 3.29385
lowerneck -19.1952 -0.632187 -8.60224
upperneck 35.3235 1.58954 1.72051
head 15.647 -0.291173 2.5289
rclavicle -2.9469e-014 7.55382e-015
rhumerus -10.9362 41.2397 -84.1069
rradius 100.713
rwrist 51.75
rhand -14.4924 -11.7725
rfingers 7.12502
rthumb 11.6543 -41.4283
lclavicle -2.9469e-014 7.55382e-015
lhumerus -26.67 -27.8517 102.496
lradius 74.6801
lwrist 3.17996
lhand -37.2547 34.357
lfingers 7.12502
lthumb -10.3203 64.0837
rfemur -7.54714 7.27703 15.2654
rtibia 24.0805
rfoot -16.2274 -4.13989
rtoes 4.64146
lfemur -0.412524 -2.36527 -21.2581
ltibia 12.5853
lfoot -10.3653 3.9345
ltoes -11.1681
113
root -0.00746731 18.0033 -0.929761 2.42947 -7.69258 0.947214
lowerback -2.37911 -0.492356 -3.45175
upperback -0.79286 -0.586594 1.35492
thorax 0.568616 -0.292385 3.31299
lowerneck -19.1493 -0.602437 -8.62345
upperneck 35.3503 1.65286 1.68329
head 15.646 -0.273715 2.52828
rclavicle -8.62384e-015 -5.56597e-015
rhumerus -10.9944 41.2163 -83.9923
rradius 101.095
rwrist 51.5399
rhand -14.3606 -11.9984
rfingers 7.12502
rthumb 11.7813 -41.647
lclavicle -8.62384e-015 -5.56597e-015
lhumerus -26.6689 -27.8957 102.601
lradius 74.9139
lwrist 3.57131
lhand -37.3217 35.1079
lfingers 7.12502
lthumb -10.385 64.8314
rfemur -7.50296 7.18827 15.3112
rtibia 24.0239
rfoot -16.2136 -4.23471
rtoes 4.61821
lfemur -0.456387 -2.42978 -21.214
ltibia 12.6261
lfoot -10.3932 3.8566
ltoes -11.2669
114
root -0.00751984 18.0025 -0.925444 2.3618 -7.55131 0.994905
lowerback -2.35055 -0.519444 -3.49058
upperback -0.783204 -0.622437 1.32465
thorax 0.56558 -0.310407 3.30275
lowerneck -19.2613 -0.578712 -8.54898
upperneck 35.4298 1.70761 1.60384
head 15.7097 -0.255903 2.49455
rclavicle -2.02419e-014 6.36111e-015
rhumerus -11.0246 41.1854 -83.8956
rradius 101.509
rwrist 51.2742
rhand -14.3225 -12.1736
rfingers 7.12502
rthumb 11.8182 -41.8202
lclavicle -2.02419e-014 6.36111e-015
lhumerus -26.7267 -28.0499 102.624
lradius 75.4598
lwrist 4.31328
lhand -37.3397 36.4638
lfingers 7.12502
lthumb -10.4024 66.1865
rfemur -7.35883 7.10717 15.2744
rtibia 23.971
rfoot -16.2736 -4.2829
rtoes 4.78502
lfemur -0.407845 -2.48058 -21.2588
ltibia 12.6714
lfoot -10.4433 3.76941
ltoes -11.7372
115
root -0.00602151 18.0029 -0.921541 2.32877 -7.33758 0.983947
lowerback -2.34046 -0.582867 -3.45641
upperback -0.768079 -0.707863 1.30739
thorax 0.581978 -0.353718 3.2631
lowerneck -19.3938 -0.548058 -8.44721
upperneck 35.5246 1.76855 1.51454
head 15.786 -0.234131 2.45351
rclavicle 2.7381e-014 -3.97569e-016
rhumerus -10.9596 41.211 -83.7625
rradius 101.858
rwrist 51.1219
rhand -14.1977 -12.4314
rfingers 7.12502
rthumb 11.9385 -42.071
lclavicle 2.7381e-014 -3.97569e-016
lhumerus -26.6822 -28.0116 102.479
lradius 75.9137
lwrist 5.40701
lhand -37.6577 36.7967
lfingers 7.12502
lthumb -10.7091 66.5037
rfemur -7.26059 7.0039 15.3044
rtibia 23.9784
rfoot -16.3765 -4.35329
rtoes 4.74072
lfemur -0.37494 -2.68513 -21.2452
ltibia 12.6669
lfoot -10.4683 3.76804
ltoes -11.682
